<?xml version="1.0" encoding="UTF-8" standalone="no"?><!-- Generator: Gravit.io --><svg xmlns="http://www.w3.org/2000/svg" xmlns:xlink="http://www.w3.org/1999/xlink" style="isolation:isolate" viewBox="415.91 1503.978 2431 821" width="2431pt" height="821pt"><defs><clipPath id="_clipPath_ctvAHpaZQTBKjcZdB4SytfzXgAt0g1vf"><rect width="3262.409" height="3829.339"/></clipPath></defs><g clip-path="url(#_clipPath_ctvAHpaZQTBKjcZdB4SytfzXgAt0g1vf)"><clipPath id="_clipPath_aliejM1u8sPNvLb47gNDeB1tR75ZoHEt"><path d=" M 415.91 1503.978 L 2846.499 1503.978 L 2846.499 2325.36 L 415.91 2325.36 L 415.91 1503.978 Z " fill-rule="evenodd" fill="rgb(255,255,255)"/></clipPath><g clip-path="url(#_clipPath_aliejM1u8sPNvLb47gNDeB1tR75ZoHEt)"><path d=" M 590.325 2149.821 L 1049.429 2149.821 L 1049.429 1515.177 L 1226.094 1515.177 L 1226.094 2158.823 C 1226.094 2182.078 1221.781 2203.833 1213.154 2224.087 C 1204.527 2244.342 1192.524 2261.971 1177.146 2276.974 C 1161.767 2291.978 1143.951 2303.793 1123.696 2312.42 C 1103.441 2321.047 1082.062 2325.36 1059.557 2325.36 L 582.448 2325.36 C 559.193 2325.36 537.438 2321.047 517.183 2312.42 C 496.929 2303.793 479.299 2291.978 464.296 2276.974 C 449.293 2261.971 437.478 2244.342 428.851 2224.087 C 420.224 2203.833 415.91 2182.078 415.91 2158.823 L 415.91 2054.174 L 590.325 2054.174 L 590.325 2149.821 Z " fill="rgb(0,0,0)"/><path d=" M 2263.409 1503.978 C 2376.533 1503.978 2468.237 1595.683 2468.237 1708.806 C 2468.237 1821.93 2376.533 1913.635 2263.409 1913.635 C 2150.285 1913.635 2058.581 1821.93 2058.581 1708.806 C 2058.581 1595.683 2150.285 1503.978 2263.409 1503.978 Z " fill-rule="evenodd" fill="rgb(37,37,225)"/><path d=" M 2846.499 1519.736 L 2846.499 1548.165 L 2732.783 1681.781 C 2743.018 1694.669 2753.441 1707.462 2764.055 1720.161 C 2774.668 1732.859 2785.093 1745.463 2795.327 1757.971 L 2846.499 1821.084 L 2846.499 1849.513 L 2757.232 1849.513 L 2676.494 1750.58 L 2595.755 1849.513 L 2506.488 1849.513 L 2506.488 1821.084 L 2620.204 1681.781 L 2506.488 1548.165 L 2506.488 1519.736 L 2595.755 1519.736 L 2676.494 1615.257 C 2689.76 1599.716 2703.312 1583.701 2717.147 1567.212 C 2730.983 1550.724 2744.155 1534.898 2756.663 1519.736 L 2846.499 1519.736 Z " fill="rgb(0,0,0)"/><path d=" M 1539.453 1519.736 C 1550.825 1519.736 1561.533 1521.915 1571.578 1526.274 C 1581.623 1530.634 1590.342 1536.604 1597.733 1544.185 C 1605.125 1551.766 1611 1560.484 1615.359 1570.339 C 1619.718 1580.195 1621.898 1590.808 1621.898 1602.18 L 1621.898 1849.513 L 1370.016 1849.513 C 1358.645 1849.513 1347.936 1847.333 1337.891 1842.974 C 1327.847 1838.615 1319.128 1832.645 1311.737 1825.064 C 1304.345 1817.483 1298.47 1808.765 1294.111 1798.909 C 1289.752 1789.054 1287.572 1778.44 1287.572 1767.068 L 1287.572 1640.844 L 1534.905 1640.844 L 1534.905 1606.729 L 1287.572 1606.729 L 1287.572 1519.736 L 1539.453 1519.736 Z  M 1534.905 1717.034 L 1374.565 1717.034 L 1374.565 1762.52 L 1534.905 1762.52 L 1534.905 1717.034 Z  M 1930.069 1519.736 C 1941.44 1519.736 1952.149 1521.915 1962.193 1526.274 C 1972.238 1530.634 1980.957 1536.604 1988.348 1544.185 C 1995.74 1551.766 2001.615 1560.484 2005.974 1570.339 C 2010.333 1580.195 2012.513 1590.808 2012.513 1602.18 L 2012.513 1849.513 L 1925.52 1849.513 L 1925.52 1606.729 L 1765.18 1606.729 L 1765.18 1849.513 L 1678.187 1849.513 L 1678.187 1519.736 L 1930.069 1519.736 Z " fill="rgb(0,0,0)"/><path d=" M 2281.646 1547.54 C 2297.488 1625.782 2301.803 1628.425 2366.421 1583.382 C 2375.245 1590.643 2383.257 1598.788 2390.324 1607.673 C 2346.19 1674.206 2347.403 1679.127 2424.966 1692.97 C 2426.057 1704.121 2425.984 1715.527 2424.675 1727.042 C 2346.433 1742.873 2343.802 1747.2 2388.833 1811.818 C 2381.572 1820.642 2373.427 1828.655 2364.542 1835.721 C 2298.009 1791.588 2293.088 1792.8 2279.245 1870.364 C 2268.094 1871.454 2256.688 1871.381 2245.173 1870.072 C 2229.343 1791.83 2225.015 1789.2 2160.397 1834.23 C 2151.573 1826.97 2143.561 1818.824 2136.494 1809.939 C 2180.627 1743.406 2179.415 1738.485 2101.852 1724.643 C 2100.761 1713.491 2100.833 1702.085 2102.143 1690.57 C 2180.385 1674.74 2183.015 1670.412 2137.985 1605.794 C 2145.258 1596.97 2153.391 1588.97 2162.276 1581.891 C 2228.809 1626.025 2233.73 1624.813 2247.573 1547.249 C 2258.724 1546.158 2270.13 1546.231 2281.646 1547.54 Z  M 2263.403 1641.406 C 2300.627 1641.406 2330.797 1671.576 2330.797 1708.8 C 2330.797 1746.024 2300.627 1776.194 2263.403 1776.194 C 2226.179 1776.194 2196.009 1746.024 2196.009 1708.8 C 2196.009 1671.576 2226.179 1641.406 2263.403 1641.406 Z " fill-rule="evenodd" fill="rgb(0,0,0)"/><path d=" M 2213.881 2051.845 L 2160.458 2051.845 C 2150.97 2051.845 2143.207 2044.082 2143.207 2034.594 L 2143.207 1954.459 C 2143.207 1917.251 2194.651 1960.58 2263.409 1960.58 C 2332.167 1960.58 2383.612 1917.251 2383.612 1954.459 L 2383.612 2034.594 C 2383.612 2044.082 2375.848 2051.845 2366.36 2051.845 L 2312.937 2051.845 L 2312.937 2076.331 L 2329.075 2076.331 C 2344.992 2076.331 2358.013 2089.352 2358.013 2105.269 L 2358.013 2158.691 C 2358.013 2174.608 2344.992 2187.629 2329.075 2187.629 L 2297.077 2187.629 L 2297.077 2199.593 C 2297.077 2205.74 2292.268 2210.818 2286.226 2211.25 L 2286.226 2230.202 L 2240.592 2256.549 L 2240.592 2211.25 C 2234.55 2210.818 2229.741 2205.74 2229.741 2199.593 L 2229.741 2187.629 L 2197.743 2187.629 C 2181.827 2187.629 2168.805 2174.608 2168.805 2158.691 L 2168.805 2105.269 C 2168.805 2089.352 2181.827 2076.331 2197.743 2076.331 L 2213.881 2076.331 L 2213.881 2051.845 Z  M 2240.592 2311.609 L 2286.226 2285.262 L 2286.226 2309.748 L 2259.185 2325.36 L 2240.592 2311.609 Z  M 2240.592 2269.871 L 2286.226 2243.524 L 2286.226 2268.011 L 2240.592 2294.358 L 2240.592 2269.871 Z " fill-rule="evenodd" fill="rgb(37,37,225)"/><path d=" M 2068.177 1938.968 C 2082.487 1938.968 2096.696 1938.974 2110.812 1938.988 C 2106.34 1946.949 2103.498 1955.936 2102.751 1965.486 C 2091.29 1965.495 2079.763 1965.5 2068.177 1965.5 C 1638.607 1965.5 1290.371 1959.56 1290.371 1952.234 C 1290.371 1944.908 1638.607 1938.968 2068.177 1938.968 Z  M 2416.762 1940.372 C 2671.298 1942.552 2845.983 1947.044 2845.983 1952.234 C 2845.983 1957.373 2674.56 1961.829 2423.937 1964.032 C 2423.082 1955.569 2420.58 1947.574 2416.762 1940.372 Z " fill-rule="evenodd" fill="rgb(0,0,0)"/><path d=" M 1354.268 2139.157 L 1354.268 2273.857 L 1540.142 2273.857 L 1540.142 2325.361 L 1351.957 2325.361 C 1345.134 2325.361 1338.751 2324.095 1332.808 2321.564 C 1326.865 2319.033 1321.693 2315.566 1317.291 2311.165 C 1312.889 2306.763 1309.423 2301.59 1306.891 2295.647 C 1304.36 2289.705 1303.095 2283.322 1303.095 2276.499 L 1303.095 2136.516 C 1303.095 2129.692 1304.36 2123.31 1306.891 2117.367 C 1309.423 2111.424 1312.889 2106.252 1317.291 2101.85 C 1321.693 2097.448 1326.865 2093.981 1332.808 2091.45 C 1338.751 2088.919 1345.134 2087.654 1351.957 2087.654 L 1540.142 2087.654 L 1540.142 2139.157 L 1354.268 2139.157 Z  M 1760.351 2087.654 L 1812.185 2087.654 L 1812.185 2325.361 L 1759.361 2325.361 L 1625.651 2166.229 L 1625.651 2325.361 L 1574.477 2325.361 L 1574.477 2087.654 L 1627.301 2087.654 L 1760.351 2246.125 L 1760.351 2087.654 Z  M 1900.334 2139.157 L 1900.334 2273.857 L 2086.208 2273.857 L 2086.208 2325.361 L 1898.023 2325.361 C 1891.2 2325.361 1884.817 2324.095 1878.875 2321.564 C 1872.932 2319.033 1867.76 2315.566 1863.358 2311.165 C 1858.956 2306.763 1855.489 2301.59 1852.958 2295.647 C 1850.427 2289.705 1849.161 2283.322 1849.161 2276.499 L 1849.161 2136.516 C 1849.161 2129.692 1850.427 2123.31 1852.958 2117.367 C 1855.489 2111.424 1858.956 2106.252 1863.358 2101.85 C 1867.76 2097.448 1872.932 2093.981 1878.875 2091.45 C 1884.817 2088.919 1891.2 2087.654 1898.023 2087.654 L 2086.208 2087.654 L 2086.208 2139.157 L 1900.334 2139.157 Z " fill="rgb(0,0,0)"/></g></g></svg>