<?xml version="1.0" encoding="UTF-8" standalone="no"?>
<!DOCTYPE svg PUBLIC "-//W3C//DTD SVG 1.1//EN" "http://www.w3.org/Graphics/SVG/1.1/DTD/svg11.dtd">
<svg xmlns="http://www.w3.org/2000/svg" xmlns:xlink="http://www.w3.org/1999/xlink" version="1.1" width="3262.4095pt" height="3829.3387pt" viewBox="0 0 3262.4095 3829.3387">
<g enable-background="new">
<g id="Layer-1" data-name="Warstwa 1">
<path transform="matrix(1,0,0,-1,1,3828.3387)" d="M .2835 3827.0552 L 3260.126 3827.0552 L 3260.126 .2835 L .2835 .2835 Z " fill="#d9dada" fill-rule="evenodd"/>
<path transform="matrix(1,0,0,-1,1,3828.3387)" stroke-width=".5669" stroke-linecap="butt" stroke-miterlimit="22.925585" stroke-linejoin="miter" fill="none" stroke="#1a1a18" d="M .2835 3827.0552 L 3260.126 3827.0552 L 3260.126 .2835 L .2835 .2835 Z "/>
<path transform="matrix(1,0,0,-1,1,3828.3387)" d="M 589.3248 1678.5181 L 1048.4291 1678.5181 L 1048.4291 2313.162 L 1225.0942 2313.162 L 1225.0942 1669.5162 C 1225.0942 1646.2608 1220.7807 1624.506 1212.1537 1604.2514 C 1203.5269 1583.9966 1191.524 1566.3677 1176.1455 1551.3643 C 1160.767 1536.3607 1142.9507 1524.5457 1122.696 1515.9186 C 1102.4413 1507.2918 1081.0617 1502.9782 1058.5565 1502.9782 L 581.4479 1502.9782 C 558.1928 1502.9782 536.4377 1507.2918 516.183 1515.9186 C 495.9286 1524.5457 478.2994 1536.3607 463.2962 1551.3643 C 448.2927 1566.3677 436.4776 1583.9966 427.8506 1604.2514 C 419.2237 1624.506 414.9102 1646.2608 414.9102 1669.5162 L 414.9102 1774.1648 L 589.3248 1774.1648 Z " fill="#ffffff"/>
<path transform="matrix(1,0,0,-1,1,3828.3387)" d="M 1538.4535 2308.6029 C 1549.8252 2308.6029 1560.5335 2306.4234 1570.5783 2302.0643 C 1580.6234 2297.705 1589.3416 2291.7349 1596.7329 2284.1539 C 1604.1246 2276.5728 1609.9999 2267.8543 1614.3591 2257.999 C 1618.7182 2248.1436 1620.8977 2237.53 1620.8977 2226.1588 L 1620.8977 1978.8259 L 1369.0165 1978.8259 C 1357.6448 1978.8259 1346.9363 1981.0054 1336.8915 1985.3646 C 1326.8466 1989.7238 1318.1284 1995.6937 1310.7368 2003.2747 C 1303.3455 2010.8557 1297.47 2019.5739 1293.1109 2029.4295 C 1288.7518 2039.2849 1286.5723 2049.8985 1286.5723 2061.27 L 1286.5723 2187.4949 L 1533.905 2187.4949 L 1533.905 2221.6099 L 1286.5723 2221.6099 L 1286.5723 2308.6029 Z M 1533.905 2111.305 L 1373.565 2111.305 L 1373.565 2065.8187 L 1533.905 2065.8187 Z M 1929.0689 2308.6029 C 1940.4403 2308.6029 1951.1487 2306.4234 1961.1935 2302.0643 C 1971.2384 2297.705 1979.9566 2291.7349 1987.3483 2284.1539 C 1994.7399 2276.5728 2000.6152 2267.8543 2004.9744 2257.999 C 2009.3335 2248.1436 2011.513 2237.53 2011.513 2226.1588 L 2011.513 1978.8259 L 1924.52 1978.8259 L 1924.52 2221.6099 L 1764.1803 2221.6099 L 1764.1803 1978.8259 L 1677.1873 1978.8259 L 1677.1873 2308.6029 Z " fill="#ffffff"/>
<path transform="matrix(1,0,0,-1,1,3828.3387)" d="M 2262.409 2324.3607 C 2375.5328 2324.3607 2467.2374 2232.656 2467.2374 2119.5323 C 2467.2374 2006.4087 2375.5328 1914.7039 2262.409 1914.7039 C 2149.2855 1914.7039 2057.5806 2006.4087 2057.5806 2119.5323 C 2057.5806 2232.656 2149.2855 2324.3607 2262.409 2324.3607 " fill="#6e6e6e" fill-rule="evenodd"/>
<path transform="matrix(1,0,0,-1,1,3828.3387)" d="M 2280.6456 2280.7987 C 2296.4876 2202.5565 2300.8028 2199.914 2365.421 2244.9564 C 2374.245 2237.6959 2382.257 2229.5504 2389.3238 2220.6654 C 2345.1905 2154.1324 2346.4027 2149.2113 2423.9664 2135.3687 C 2425.057 2124.217 2424.9844 2112.811 2423.6754 2101.2962 C 2345.433 2085.4659 2342.8026 2081.1385 2387.833 2016.5204 C 2380.5723 2007.6962 2372.427 1999.6841 2363.542 1992.6176 C 2297.0089 2036.7507 2292.0877 2035.5386 2278.2454 1957.9751 C 2267.0938 1956.8843 2255.6878 1956.9572 2244.1727 1958.2662 C 2228.3426 2036.5084 2224.0152 2039.1386 2159.3973 1994.1083 C 2150.5728 2001.369 2142.5609 2009.5143 2135.4942 2018.3992 C 2179.6275 2084.9324 2178.4154 2089.8536 2100.8519 2103.696 C 2099.761 2114.8475 2099.8336 2126.2535 2101.1429 2137.7689 C 2179.385 2153.5989 2182.0155 2157.9263 2136.9849 2222.5443 C 2144.2579 2231.3685 2152.391 2239.3685 2161.276 2246.447 C 2227.809 2202.314 2232.7303 2203.526 2246.5726 2281.0897 C 2257.724 2282.1805 2269.1302 2282.1077 2280.6456 2280.7987 Z M 2262.403 2186.9324 C 2299.627 2186.9324 2329.7967 2156.7628 2329.7967 2119.5386 C 2329.7967 2082.3143 2299.627 2052.145 2262.403 2052.145 C 2225.1788 2052.145 2195.0093 2082.3143 2195.0093 2119.5386 C 2195.0093 2156.7628 2225.1788 2186.9324 2262.403 2186.9324 " fill="#ffffff" fill-rule="evenodd"/>
<path transform="matrix(1,0,0,-1,1,3828.3387)" d="M 2212.881 1776.493 L 2159.4583 1776.493 C 2149.97 1776.493 2142.2066 1784.2564 2142.2066 1793.7448 L 2142.2066 1873.8794 C 2142.2066 1911.0878 2193.651 1867.7582 2262.4093 1867.7582 C 2331.1676 1867.7582 2382.6116 1911.0878 2382.6116 1873.8794 L 2382.6116 1793.7448 C 2382.6116 1784.2564 2374.8485 1776.493 2365.3599 1776.493 L 2311.937 1776.493 L 2311.937 1752.008 L 2328.0755 1752.008 C 2343.9918 1752.008 2357.013 1738.9865 2357.013 1723.07 L 2357.013 1669.6471 C 2357.013 1653.7306 2343.9918 1640.7094 2328.0755 1640.7094 L 2296.0775 1640.7094 L 2296.0775 1628.7454 C 2296.0775 1622.5985 2291.2684 1617.5205 2285.226 1617.0885 L 2285.226 1598.1369 L 2239.5924 1571.79 L 2239.5924 1617.0885 C 2233.55 1617.5205 2228.741 1622.5985 2228.741 1628.7454 L 2228.741 1640.7094 L 2196.7427 1640.7094 C 2180.8267 1640.7094 2167.8052 1653.7306 2167.8052 1669.6471 L 2167.8052 1723.07 C 2167.8052 1738.9865 2180.8267 1752.008 2196.7427 1752.008 L 2212.881 1752.008 Z M 2239.5924 1516.7299 L 2285.226 1543.0768 L 2285.226 1518.5903 L 2258.1849 1502.9782 Z M 2239.5924 1558.4675 L 2285.226 1584.8141 L 2285.226 1560.3279 L 2239.5924 1533.981 Z " fill="#6e6e6e" fill-rule="evenodd"/>
<path transform="matrix(1,0,0,-1,1,3828.3387)" d="M 2067.1773 1889.3707 C 2081.4874 1889.3707 2095.696 1889.3648 2109.8116 1889.351 C 2105.3399 1881.3892 2102.4984 1872.4031 2101.7515 1862.8523 C 2090.29 1862.8438 2078.7633 1862.839 2067.1773 1862.839 C 1637.6068 1862.839 1289.3706 1868.7787 1289.3706 1876.1049 C 1289.3706 1883.431 1637.6068 1889.3707 2067.1773 1889.3707 Z M 2415.762 1887.9667 C 2670.2977 1885.7863 2844.9835 1881.2942 2844.9835 1876.1049 C 2844.9835 1870.9656 2673.5596 1866.5099 2422.937 1864.3062 C 2422.082 1872.7693 2419.5804 1880.7644 2415.762 1887.9667 " fill="#ffffff" fill-rule="evenodd"/>
<path transform="matrix(1,0,0,-1,1,3828.3387)" d="M 2845.4993 2308.6029 L 2845.4993 2280.1737 L 2731.7833 2146.5574 C 2742.0177 2133.6693 2752.4415 2120.8763 2763.055 2108.178 C 2773.6685 2095.4796 2784.0926 2082.8763 2794.327 2070.3675 L 2845.4993 2007.2548 L 2845.4993 1978.8259 L 2756.232 1978.8259 L 2675.4937 2077.759 L 2594.755 1978.8259 L 2505.4879 1978.8259 L 2505.4879 2007.2548 L 2619.204 2146.5574 L 2505.4879 2280.1737 L 2505.4879 2308.6029 L 2594.755 2308.6029 L 2675.4937 2213.0814 C 2688.7603 2228.6224 2702.3118 2244.6375 2716.147 2261.1263 C 2729.9827 2277.615 2743.1546 2293.4407 2755.6634 2308.6029 Z " fill="#ffffff"/>
<path transform="matrix(1,0,0,-1,1,3828.3387)" d="M 1353.2681 1689.1818 L 1353.2681 1554.4811 L 1539.1417 1554.4811 L 1539.1417 1502.9776 L 1350.9567 1502.9776 C 1344.1337 1502.9776 1337.7509 1504.2433 1331.8084 1506.7747 C 1325.8655 1509.3057 1320.6932 1512.7722 1316.2913 1517.1741 C 1311.8893 1521.576 1308.4229 1526.7484 1305.8915 1532.6912 C 1303.3604 1538.6338 1302.0949 1545.0169 1302.0949 1551.8399 L 1302.0949 1691.8228 C 1302.0949 1698.6461 1303.3604 1705.0289 1305.8915 1710.9717 C 1308.4229 1716.9143 1311.8893 1722.0866 1316.2913 1726.4887 C 1320.6932 1730.8905 1325.8655 1734.3573 1331.8084 1736.8883 C 1337.7509 1739.4194 1344.1337 1740.685 1350.9567 1740.685 L 1539.1417 1740.685 L 1539.1417 1689.1818 Z M 1759.3512 1740.685 L 1811.1847 1740.685 L 1811.1847 1502.9776 L 1758.3609 1502.9776 L 1624.6505 1662.1095 L 1624.6505 1502.9776 L 1573.4772 1502.9776 L 1573.4772 1740.685 L 1626.3012 1740.685 L 1759.3512 1582.2136 Z M 1899.3345 1689.1818 L 1899.3345 1554.4811 L 2085.2083 1554.4811 L 2085.2083 1502.9776 L 1897.0231 1502.9776 C 1890.2001 1502.9776 1883.8174 1504.2433 1877.8748 1506.7747 C 1871.932 1509.3057 1866.7597 1512.7722 1862.3577 1517.1741 C 1857.9557 1521.576 1854.4893 1526.7484 1851.9579 1532.6912 C 1849.4269 1538.6338 1848.1613 1545.0169 1848.1613 1551.8399 L 1848.1613 1691.8228 C 1848.1613 1698.6461 1849.4269 1705.0289 1851.9579 1710.9717 C 1854.4893 1716.9143 1857.9557 1722.0866 1862.3577 1726.4887 C 1866.7597 1730.8905 1871.932 1734.3573 1877.8748 1736.8883 C 1883.8174 1739.4194 1890.2001 1740.685 1897.0231 1740.685 L 2085.2083 1740.685 L 2085.2083 1689.1818 Z " fill="#ffffff"/>
</g>
</g>
</svg>
